<svg width="36" height="36" viewBox="0 0 36 36" fill="none" xmlns="http://www.w3.org/2000/svg">
<rect width="36" height="36" rx="5" fill="#6297BC"/>
<path d="M19.1746 18.0002L24.4246 12.7585C24.5815 12.6016 24.6697 12.3887 24.6697 12.1668C24.6697 11.9449 24.5815 11.7321 24.4246 11.5752C24.2677 11.4182 24.0549 11.3301 23.833 11.3301C23.611 11.3301 23.3982 11.4182 23.2413 11.5752L17.9996 16.8252L12.758 11.5752C12.601 11.4182 12.3882 11.3301 12.1663 11.3301C11.9444 11.3301 11.7315 11.4182 11.5746 11.5752C11.4177 11.7321 11.3295 11.9449 11.3295 12.1668C11.3295 12.3887 11.4177 12.6016 11.5746 12.7585L16.8246 18.0002L11.5746 23.2418C11.4965 23.3193 11.4345 23.4115 11.3922 23.513C11.3499 23.6146 11.3281 23.7235 11.3281 23.8335C11.3281 23.9435 11.3499 24.0524 11.3922 24.154C11.4345 24.2555 11.4965 24.3477 11.5746 24.4252C11.6521 24.5033 11.7443 24.5653 11.8458 24.6076C11.9474 24.6499 12.0563 24.6717 12.1663 24.6717C12.2763 24.6717 12.3852 24.6499 12.4868 24.6076C12.5883 24.5653 12.6805 24.5033 12.758 24.4252L17.9996 19.1752L23.2413 24.4252C23.3188 24.5033 23.4109 24.5653 23.5125 24.6076C23.614 24.6499 23.7229 24.6717 23.833 24.6717C23.943 24.6717 24.0519 24.6499 24.1534 24.6076C24.255 24.5653 24.3472 24.5033 24.4246 24.4252C24.5027 24.3477 24.5647 24.2555 24.607 24.154C24.6493 24.0524 24.6711 23.9435 24.6711 23.8335C24.6711 23.7235 24.6493 23.6146 24.607 23.513C24.5647 23.4115 24.5027 23.3193 24.4246 23.2418L19.1746 18.0002Z" fill="white"/>
</svg>
