<svg width="223" height="63" viewBox="0 0 223 63" fill="none" xmlns="http://www.w3.org/2000/svg">
<path d="M118.06 50L120.4 44.75H121.6L123.948 50H122.673L120.753 45.365H121.233L119.305 50H118.06ZM119.23 48.875L119.553 47.9525H122.253L122.583 48.875H119.23ZM124.545 49.01C124.835 49.095 125.078 49.12 125.273 49.085C125.473 49.045 125.65 48.905 125.805 48.665L126.06 48.2825L126.173 48.155L127.913 44.75H129.105L126.87 48.905C126.67 49.28 126.433 49.5675 126.158 49.7675C125.888 49.9675 125.59 50.08 125.265 50.105C124.94 50.135 124.603 50.0775 124.253 49.9325L124.545 49.01ZM126.15 49.1675L123.78 44.75H125.078L126.818 48.275L126.15 49.1675ZM133.075 49.46V45.74H131.275L131.252 46.505C131.237 46.83 131.215 47.1375 131.185 47.4275C131.16 47.7175 131.12 47.9825 131.065 48.2225C131.01 48.4575 130.937 48.6575 130.847 48.8225C130.762 48.9875 130.655 49.105 130.525 49.175L129.227 49.01C129.407 49.015 129.555 48.9525 129.67 48.8225C129.79 48.6925 129.885 48.51 129.955 48.275C130.025 48.035 130.075 47.755 130.105 47.435C130.14 47.115 130.165 46.7675 130.18 46.3925L130.24 44.75H134.275V49.46H133.075ZM129.055 51.0875L129.062 49.01H135.01V51.0875H133.885V50H130.18V51.0875H129.055ZM135.828 50V44.75H137.035V48.17L139.54 44.75H140.68V50H139.48V46.5875L136.975 50H135.828ZM144.5 50.09C144.085 50.09 143.7 50.0225 143.345 49.8875C142.995 49.7525 142.69 49.5625 142.43 49.3175C142.175 49.0725 141.975 48.785 141.83 48.455C141.69 48.125 141.62 47.765 141.62 47.375C141.62 46.985 141.69 46.625 141.83 46.295C141.975 45.965 142.177 45.6775 142.437 45.4325C142.697 45.1875 143.002 44.9975 143.352 44.8625C143.702 44.7275 144.082 44.66 144.492 44.66C144.907 44.66 145.287 44.7275 145.632 44.8625C145.982 44.9975 146.285 45.1875 146.54 45.4325C146.8 45.6775 147.002 45.965 147.147 46.295C147.292 46.62 147.365 46.98 147.365 47.375C147.365 47.765 147.292 48.1275 147.147 48.4625C147.002 48.7925 146.8 49.08 146.54 49.325C146.285 49.565 145.982 49.7525 145.632 49.8875C145.287 50.0225 144.91 50.09 144.5 50.09ZM144.492 49.055C144.727 49.055 144.942 49.015 145.137 48.935C145.337 48.855 145.512 48.74 145.662 48.59C145.812 48.44 145.927 48.2625 146.007 48.0575C146.092 47.8525 146.135 47.625 146.135 47.375C146.135 47.125 146.092 46.8975 146.007 46.6925C145.927 46.4875 145.812 46.31 145.662 46.16C145.517 46.01 145.345 45.895 145.145 45.815C144.945 45.735 144.727 45.695 144.492 45.695C144.257 45.695 144.04 45.735 143.84 45.815C143.645 45.895 143.472 46.01 143.322 46.16C143.172 46.31 143.055 46.4875 142.97 46.6925C142.89 46.8975 142.85 47.125 142.85 47.375C142.85 47.62 142.89 47.8475 142.97 48.0575C143.055 48.2625 143.17 48.44 143.315 48.59C143.465 48.74 143.64 48.855 143.84 48.935C144.04 49.015 144.257 49.055 144.492 49.055ZM150.425 50V44.75H152.87C153.48 44.75 153.955 44.8675 154.295 45.1025C154.635 45.3375 154.805 45.6725 154.805 46.1075C154.805 46.5375 154.645 46.8725 154.325 47.1125C154.005 47.3475 153.58 47.465 153.05 47.465L153.192 47.15C153.782 47.15 154.24 47.2675 154.565 47.5025C154.89 47.7375 155.052 48.0775 155.052 48.5225C155.052 48.9825 154.877 49.345 154.527 49.61C154.182 49.87 153.677 50 153.012 50H150.425ZM151.632 49.1H152.967C153.247 49.1 153.46 49.045 153.605 48.935C153.75 48.825 153.822 48.655 153.822 48.425C153.822 48.205 153.75 48.0425 153.605 47.9375C153.46 47.8275 153.247 47.7725 152.967 47.7725H151.632V49.1ZM151.632 46.925H152.765C153.03 46.925 153.23 46.8725 153.365 46.7675C153.5 46.6575 153.567 46.4975 153.567 46.2875C153.567 46.0775 153.5 45.92 153.365 45.815C153.23 45.705 153.03 45.65 152.765 45.65H151.632V46.925ZM156.013 50V44.75H157.221V48.17L159.726 44.75H160.866V50H159.666V46.5875L157.161 50H156.013ZM165.616 49.46V45.74H163.816L163.794 46.505C163.779 46.83 163.756 47.1375 163.726 47.4275C163.701 47.7175 163.661 47.9825 163.606 48.2225C163.551 48.4575 163.479 48.6575 163.389 48.8225C163.304 48.9875 163.196 49.105 163.066 49.175L161.769 49.01C161.949 49.015 162.096 48.9525 162.211 48.8225C162.331 48.6925 162.426 48.51 162.496 48.275C162.566 48.035 162.616 47.755 162.646 47.435C162.681 47.115 162.706 46.7675 162.721 46.3925L162.781 44.75H166.816V49.46H165.616ZM161.596 51.0875L161.604 49.01H167.551V51.0875H166.426V50H162.721V51.0875H161.596ZM169.487 46.865H172.014V47.81H169.487V46.865ZM169.577 49.025H172.434V50H168.369V44.75H172.337V45.725H169.577V49.025ZM175.928 50.09C175.513 50.09 175.128 50.0225 174.773 49.8875C174.423 49.7525 174.118 49.5625 173.858 49.3175C173.603 49.0725 173.403 48.785 173.258 48.455C173.118 48.125 173.048 47.765 173.048 47.375C173.048 46.985 173.118 46.625 173.258 46.295C173.403 45.965 173.606 45.6775 173.866 45.4325C174.126 45.1875 174.431 44.9975 174.781 44.8625C175.131 44.7275 175.511 44.66 175.921 44.66C176.336 44.66 176.716 44.7275 177.061 44.8625C177.411 44.9975 177.713 45.1875 177.968 45.4325C178.228 45.6775 178.431 45.965 178.576 46.295C178.721 46.62 178.793 46.98 178.793 47.375C178.793 47.765 178.721 48.1275 178.576 48.4625C178.431 48.7925 178.228 49.08 177.968 49.325C177.713 49.565 177.411 49.7525 177.061 49.8875C176.716 50.0225 176.338 50.09 175.928 50.09ZM175.921 49.055C176.156 49.055 176.371 49.015 176.566 48.935C176.766 48.855 176.941 48.74 177.091 48.59C177.241 48.44 177.356 48.2625 177.436 48.0575C177.521 47.8525 177.563 47.625 177.563 47.375C177.563 47.125 177.521 46.8975 177.436 46.6925C177.356 46.4875 177.241 46.31 177.091 46.16C176.946 46.01 176.773 45.895 176.573 45.815C176.373 45.735 176.156 45.695 175.921 45.695C175.686 45.695 175.468 45.735 175.268 45.815C175.073 45.895 174.901 46.01 174.751 46.16C174.601 46.31 174.483 46.4875 174.398 46.6925C174.318 46.8975 174.278 47.125 174.278 47.375C174.278 47.62 174.318 47.8475 174.398 48.0575C174.483 48.2625 174.598 48.44 174.743 48.59C174.893 48.74 175.068 48.855 175.268 48.935C175.468 49.015 175.686 49.055 175.921 49.055ZM181.853 50V44.75H184.126C184.596 44.75 185.001 44.8275 185.341 44.9825C185.681 45.1325 185.943 45.35 186.128 45.635C186.313 45.92 186.406 46.26 186.406 46.655C186.406 47.045 186.313 47.3825 186.128 47.6675C185.943 47.9525 185.681 48.1725 185.341 48.3275C185.001 48.4775 184.596 48.5525 184.126 48.5525H182.528L183.068 48.005V50H181.853ZM183.068 48.14L182.528 47.5625H184.058C184.433 47.5625 184.713 47.4825 184.898 47.3225C185.083 47.1625 185.176 46.94 185.176 46.655C185.176 46.365 185.083 46.14 184.898 45.98C184.713 45.82 184.433 45.74 184.058 45.74H182.528L183.068 45.1625V48.14ZM188.325 46.865H190.852V47.81H188.325V46.865ZM188.415 49.025H191.272V50H187.207V44.75H191.175V45.725H188.415V49.025ZM195.389 49.01L195.119 49.2875V44.75H196.326V49.2875L196.041 49.01H198.261L197.976 49.2875V44.75H199.184V50H192.254V44.75H193.461V49.2875L193.184 49.01H195.389ZM201.603 46.865H204.131V47.81H201.603V46.865ZM201.693 49.025H204.551V50H200.486V44.75H204.453V45.725H201.693V49.025ZM209.132 44.75H210.347V50H209.132V44.75ZM206.747 50H205.532V44.75H206.747V50ZM209.222 47.8475H206.657V46.82H209.222V47.8475ZM211.663 50V44.75H212.87V48.17L215.375 44.75H216.515V50H215.315V46.5875L212.81 50H211.663ZM220.815 50V48.3425L221.115 48.605H219.675C219.22 48.605 218.827 48.53 218.497 48.38C218.167 48.23 217.915 48.0125 217.74 47.7275C217.565 47.4425 217.477 47.1025 217.477 46.7075C217.477 46.2975 217.57 45.9475 217.755 45.6575C217.945 45.3625 218.21 45.1375 218.55 44.9825C218.89 44.8275 219.29 44.75 219.75 44.75H222.015V50H220.815ZM217.492 50L218.797 48.1175H220.027L218.775 50H217.492ZM220.815 47.9525V45.425L221.115 45.74H219.78C219.435 45.74 219.17 45.82 218.985 45.98C218.805 46.14 218.715 46.3775 218.715 46.6925C218.715 46.9975 218.802 47.2325 218.977 47.3975C219.152 47.5625 219.41 47.645 219.75 47.645H221.115L220.815 47.9525Z" fill="#202020"/>
<path fill-rule="evenodd" clip-rule="evenodd" d="M31.3301 0C41.7667 0 51.0096 5.13197 56.7034 13.0216C51.8257 7.83445 44.918 4.59719 37.2574 4.59719C22.4795 4.59719 10.4997 16.6419 10.4997 31.5C10.4997 46.3581 22.4795 58.4028 37.2574 58.4028C44.918 58.4028 51.8257 55.1655 56.7034 49.9784C51.0096 57.868 41.7667 63 31.3301 63C14.0269 63 0 48.897 0 31.5C0 14.103 14.0269 0 31.3301 0Z" fill="#2B5086"/>
<path fill-rule="evenodd" clip-rule="evenodd" d="M56.2474 45.6782L54.5154 43.9368L54.3763 44.1331C56.2926 41.4579 57.6164 38.3252 58.1542 34.9288H60.6761C61.0611 34.9288 61.3759 34.6122 61.3759 34.2251V28.7722C61.3759 28.3851 61.0611 28.0686 60.6761 28.0686H58.1542C57.6255 24.7302 56.3375 21.6461 54.4734 19.0011L54.5154 19.0609L56.2476 17.3193C56.52 17.0455 56.5198 16.5979 56.2476 16.3241L52.4127 12.4683C52.1403 12.1947 51.6951 12.1945 51.4228 12.4683L49.7582 14.1419C50.2165 14.4858 50.6606 14.8473 51.0895 15.2259C48.2088 12.6839 44.647 10.9031 40.7152 10.1954L40.7313 10.1982V8.01566C40.7313 7.62853 40.4165 7.31201 40.0314 7.31201H34.6079C34.2229 7.31201 33.9081 7.62853 33.9081 8.01566V10.0628C27.9785 10.8909 22.822 14.1483 19.4634 18.8026C22.8149 15.2385 27.561 13.0142 32.8244 13.0142C42.9779 13.0142 51.2089 21.2901 51.2089 31.4987C51.2089 41.7072 42.9779 49.9831 32.8244 49.9831C27.561 49.9831 22.8149 47.7589 19.4634 44.1947C22.8222 48.849 27.9789 52.1062 33.9081 52.9345V54.9815C33.9081 55.3686 34.2229 55.6851 34.6079 55.6851H40.0314C40.4165 55.6851 40.7313 55.3686 40.7313 54.9815V52.7991L40.7152 52.8019C44.0725 52.1972 47.1594 50.8108 49.7832 48.8363L49.758 48.8554L51.4228 50.5292C51.695 50.8028 52.1401 50.8028 52.4125 50.529L56.2474 46.6733C56.5198 46.3996 56.5198 45.9521 56.2474 45.6782V45.6782Z" fill="#6297BC"/>
<path fill-rule="evenodd" clip-rule="evenodd" d="M96.8807 39.4659H91.3912V34.4573H74.923V39.4659H69.4336V21.9354C69.4336 16.9268 72.1785 14.4224 77.6679 14.4224H88.6466C94.136 14.4224 96.8807 16.9268 96.8807 21.9354V39.4659V39.4659ZM91.3912 29.4485V21.9354C91.3912 20.2659 90.4764 19.4312 88.6466 19.4312H77.6679C75.8379 19.4312 74.923 20.2659 74.923 21.9354V29.4485H91.3912V29.4485ZM125.563 31.9529C125.563 36.9615 122.818 39.4659 117.329 39.4659H106.35C100.861 39.4659 98.1158 36.9615 98.1158 31.9529V14.4224H103.605V31.9529C103.605 33.6224 104.52 34.4573 106.35 34.4573H117.329C119.159 34.4573 120.073 33.6224 120.073 31.9529V14.4224H125.563V31.9529V31.9529ZM155.755 14.4224L144.959 39.4659H139.103L128.308 14.4224H134.163L142.031 32.579L149.899 14.4224H155.755V14.4224ZM162.616 39.4659H157.127V14.4224H162.616V39.4659ZM192.808 39.4659H187.319L170.85 22.1025V39.4659H165.361V14.4224H170.85L187.319 31.7858V14.4224H192.808V39.4659ZM223 19.4312H212.021V39.4659H206.532V19.4312H195.553V14.4224H223V19.4312Z" fill="#2B5086"/>
</svg>
