<svg xmlns="http://www.w3.org/2000/svg" width="36" height="36" viewBox="0 0 36 36" fill="none">
    <rect width="36" height="36" rx="5" fill="#2B5086"/>
    <path d="M24.1998 18.8333C24.0165 18.8333 23.8248 18.775 23.6415 18.7333C23.2702 18.6515 22.9054 18.5429 22.5498 18.4083C22.1632 18.2677 21.7383 18.275 21.3568 18.4288C20.9752 18.5827 20.6641 18.8722 20.4832 19.2416L20.2998 19.6166C19.4882 19.1651 18.7423 18.6043 18.0832 17.95C17.4288 17.2908 16.868 16.545 16.4165 15.7333L16.7665 15.5C17.136 15.3191 17.4255 15.0079 17.5793 14.6264C17.7332 14.2448 17.7405 13.8199 17.5998 13.4333C17.4675 13.077 17.359 12.7123 17.2748 12.3416C17.2332 12.1583 17.1998 11.9666 17.1748 11.775C17.0736 11.188 16.7662 10.6564 16.3079 10.276C15.8495 9.89559 15.2704 9.69131 14.6748 9.69997H12.1748C11.8157 9.6966 11.46 9.77065 11.1321 9.91708C10.8041 10.0635 10.5116 10.2789 10.2744 10.5485C10.0371 10.8182 9.86079 11.1358 9.75733 11.4797C9.65387 11.8237 9.62574 12.1859 9.67484 12.5416C10.1188 16.0328 11.7132 19.2765 14.2062 21.7605C16.6992 24.2445 19.9488 25.8271 23.4415 26.2583H23.7582C24.3727 26.2592 24.966 26.0337 25.4248 25.625C25.6885 25.3892 25.8991 25.1001 26.0427 24.7769C26.1864 24.4537 26.2598 24.1037 26.2582 23.75V21.25C26.248 20.6711 26.0372 20.1138 25.6618 19.673C25.2864 19.2323 24.7697 18.9355 24.1998 18.8333ZM24.6165 23.8333C24.6164 23.9516 24.591 24.0686 24.5422 24.1763C24.4933 24.2841 24.4221 24.3802 24.3332 24.4583C24.2403 24.5391 24.1315 24.5995 24.0137 24.6354C23.896 24.6713 23.772 24.6819 23.6498 24.6666C20.5289 24.2665 17.63 22.8387 15.4104 20.6085C13.1908 18.3784 11.7768 15.4728 11.3915 12.35C11.3782 12.2279 11.3899 12.1044 11.4257 11.987C11.4615 11.8695 11.5207 11.7605 11.5998 11.6666C11.6779 11.5777 11.7741 11.5065 11.8818 11.4577C11.9896 11.4088 12.1065 11.3835 12.2248 11.3833H14.7248C14.9186 11.379 15.1079 11.4424 15.26 11.5625C15.4121 11.6827 15.5175 11.8521 15.5582 12.0416C15.5915 12.2694 15.6332 12.4944 15.6832 12.7166C15.7794 13.1559 15.9076 13.5876 16.0665 14.0083L14.8998 14.55C14.8001 14.5957 14.7104 14.6608 14.6358 14.7413C14.5613 14.8218 14.5033 14.9163 14.4654 15.0193C14.4275 15.1223 14.4102 15.2317 14.4147 15.3414C14.4192 15.4511 14.4453 15.5588 14.4915 15.6583C15.6908 18.2273 17.7559 20.2923 20.3248 21.4916C20.5277 21.575 20.7553 21.575 20.9582 21.4916C21.0621 21.4545 21.1576 21.397 21.2391 21.3226C21.3207 21.2482 21.3866 21.1584 21.4332 21.0583L21.9498 19.8916C22.3806 20.0457 22.8203 20.1737 23.2665 20.275C23.4887 20.325 23.7137 20.3666 23.9415 20.4C24.131 20.4406 24.3005 20.5461 24.4206 20.6982C24.5408 20.8503 24.6042 21.0395 24.5998 21.2333L24.6165 23.8333Z" fill="white"/>
</svg>