<svg xmlns="http://www.w3.org/2000/svg" width="36" height="36" viewBox="0 0 36 36" fill="none">
<rect x="0.5" y="0.5" width="35" height="35" rx="4.5" fill="white"/>
<path d="M26.0909 24.9085L22.9992 21.8418C24.1993 20.3455 24.7804 18.4462 24.6232 16.5346C24.466 14.6229 23.5822 12.8441 22.1538 11.564C20.7253 10.2839 18.8607 9.59976 16.9433 9.65222C15.0259 9.70469 13.2015 10.4898 11.8451 11.8461C10.4888 13.2024 9.70371 15.0269 9.65125 16.9443C9.59878 18.8617 10.2829 20.7263 11.5631 22.1548C12.8432 23.5832 14.6219 24.4669 16.5336 24.6242C18.4453 24.7814 20.3445 24.2002 21.8409 23.0002L24.9075 26.0668C24.985 26.1449 25.0772 26.2069 25.1787 26.2492C25.2803 26.2915 25.3892 26.3133 25.4992 26.3133C25.6092 26.3133 25.7181 26.2915 25.8197 26.2492C25.9212 26.2069 26.0134 26.1449 26.0909 26.0668C26.2411 25.9114 26.325 25.7038 26.325 25.4877C26.325 25.2715 26.2411 25.0639 26.0909 24.9085ZM17.1659 23.0002C16.0121 23.0002 14.8843 22.658 13.925 22.0171C12.9657 21.3761 12.2181 20.4651 11.7766 19.3992C11.335 18.3332 11.2195 17.1604 11.4446 16.0288C11.6697 14.8972 12.2253 13.8578 13.0411 13.042C13.8569 12.2262 14.8963 11.6707 16.0278 11.4456C17.1594 11.2205 18.3323 11.336 19.3982 11.7775C20.4641 12.219 21.3751 12.9667 22.0161 13.926C22.6571 14.8853 22.9992 16.0131 22.9992 17.1668C22.9992 18.7139 22.3846 20.1977 21.2906 21.2916C20.1967 22.3856 18.713 23.0002 17.1659 23.0002Z" fill="#2B5086"/>
<rect x="0.5" y="0.5" width="35" height="35" rx="4.5" stroke="#E5E5E5"/>
</svg>