<svg xmlns="http://www.w3.org/2000/svg" width="36" height="36" viewBox="0 0 36 36" fill="none">
<rect width="36" height="36" rx="5" fill="#2B5086"/>
<path d="M26.0918 24.9085L23.0002 21.8418C24.2002 20.3455 24.7814 18.4462 24.6242 16.5346C24.4669 14.6229 23.5832 12.8441 22.1548 11.564C20.7263 10.2839 18.8617 9.59976 16.9443 9.65222C15.0269 9.70469 13.2024 10.4898 11.8461 11.8461C10.4898 13.2024 9.70469 15.0269 9.65222 16.9443C9.59976 18.8617 10.2839 20.7263 11.564 22.1548C12.8441 23.5832 14.6229 24.4669 16.5346 24.6242C18.4462 24.7814 20.3455 24.2002 21.8418 23.0002L24.9085 26.0668C24.986 26.1449 25.0781 26.2069 25.1797 26.2492C25.2812 26.2915 25.3902 26.3133 25.5002 26.3133C25.6102 26.3133 25.7191 26.2915 25.8206 26.2492C25.9222 26.2069 26.0144 26.1449 26.0918 26.0668C26.242 25.9114 26.326 25.7038 26.326 25.4877C26.326 25.2715 26.242 25.0639 26.0918 24.9085ZM17.1668 23.0002C16.0131 23.0002 14.8853 22.658 13.926 22.0171C12.9667 21.3761 12.219 20.4651 11.7775 19.3992C11.336 18.3332 11.2205 17.1604 11.4456 16.0288C11.6707 14.8972 12.2262 13.8578 13.042 13.042C13.8578 12.2262 14.8972 11.6707 16.0288 11.4456C17.1604 11.2205 18.3332 11.336 19.3992 11.7775C20.4651 12.219 21.3761 12.9667 22.0171 13.926C22.658 14.8853 23.0002 16.0131 23.0002 17.1668C23.0002 18.7139 22.3856 20.1977 21.2916 21.2916C20.1977 22.3856 18.7139 23.0002 17.1668 23.0002Z" fill="white"/>
</svg>