<svg xmlns="http://www.w3.org/2000/svg" width="12" height="8" viewBox="0 0 12 8" fill="none">
<path d="M5.9997 3.29007L2.4597 6.83006C2.27234 7.01632 2.01889 7.12086 1.7547 7.12086C1.49052 7.12086 1.23707 7.01632 1.0497 6.83006C0.955976 6.7371 0.881582 6.6265 0.830813 6.50464C0.780044 6.38278 0.753906 6.25208 0.753906 6.12006C0.753906 5.98805 0.780044 5.85735 0.830813 5.73549C0.881582 5.61363 0.955976 5.50303 1.0497 5.41006L5.2897 1.17007C5.38267 1.07634 5.49327 1.00194 5.61513 0.951175C5.73699 0.900406 5.86769 0.874268 5.9997 0.874268C6.13172 0.874268 6.26242 0.900406 6.38428 0.951175C6.50614 1.00194 6.61674 1.07634 6.7097 1.17007L10.9997 5.41006C11.0924 5.5035 11.1657 5.61432 11.2155 5.73616C11.2652 5.858 11.2905 5.98846 11.2897 6.12006C11.2905 6.25167 11.2652 6.38213 11.2155 6.50397C11.1657 6.62581 11.0924 6.73662 10.9997 6.83006C10.8123 7.01632 10.5589 7.12086 10.2947 7.12086C10.0305 7.12086 9.77707 7.01632 9.5897 6.83006L5.9997 3.29007Z" fill="#2B5086"/>
</svg>