<svg xmlns="http://www.w3.org/2000/svg" width="36" height="36" viewBox="0 0 36 36" fill="none">
<rect width="36" height="36" rx="5" fill="#6297BC"/>
<path d="M18.8327 21.3333H10.4993C10.2783 21.3333 10.0664 21.4211 9.91009 21.5774C9.75381 21.7337 9.66602 21.9457 9.66602 22.1667C9.66602 22.3877 9.75381 22.5996 9.91009 22.7559C10.0664 22.9122 10.2783 23 10.4993 23H18.8327C19.0537 23 19.2657 22.9122 19.4219 22.7559C19.5782 22.5996 19.666 22.3877 19.666 22.1667C19.666 21.9457 19.5782 21.7337 19.4219 21.5774C19.2657 21.4211 19.0537 21.3333 18.8327 21.3333ZM10.4993 14.6667H25.4993C25.7204 14.6667 25.9323 14.5789 26.0886 14.4226C26.2449 14.2663 26.3327 14.0543 26.3327 13.8333C26.3327 13.6123 26.2449 13.4004 26.0886 13.2441C25.9323 13.0878 25.7204 13 25.4993 13H10.4993C10.2783 13 10.0664 13.0878 9.91009 13.2441C9.75381 13.4004 9.66602 13.6123 9.66602 13.8333C9.66602 14.0543 9.75381 14.2663 9.91009 14.4226C10.0664 14.5789 10.2783 14.6667 10.4993 14.6667ZM25.4993 17.1667H10.4993C10.2783 17.1667 10.0664 17.2545 9.91009 17.4107C9.75381 17.567 9.66602 17.779 9.66602 18C9.66602 18.221 9.75381 18.433 9.91009 18.5893C10.0664 18.7455 10.2783 18.8333 10.4993 18.8333H25.4993C25.7204 18.8333 25.9323 18.7455 26.0886 18.5893C26.2449 18.433 26.3327 18.221 26.3327 18C26.3327 17.779 26.2449 17.567 26.0886 17.4107C25.9323 17.2545 25.7204 17.1667 25.4993 17.1667Z" fill="white"/>
</svg>