<svg xmlns="http://www.w3.org/2000/svg" width="30" height="30" viewBox="0 0 30 30" fill="none">
<g clip-path="url(#clip0_164_3146)">
<path d="M19.4996 15.0001C19.4996 16.1936 19.0255 17.3382 18.1816 18.1821C17.3377 19.026 16.1931 19.5001 14.9996 19.5001C13.8061 19.5001 12.6615 19.026 11.8176 18.1821C10.9737 17.3382 10.4996 16.1936 10.4996 15.0001C10.4996 14.7436 10.5266 14.4931 10.5731 14.2501H8.99961V20.2456C8.99961 20.6626 9.33711 21.0001 9.75411 21.0001H20.2466C20.4465 20.9997 20.638 20.92 20.7792 20.7786C20.9203 20.6371 20.9996 20.4454 20.9996 20.2456V14.2501H19.4261C19.4726 14.4931 19.4996 14.7436 19.4996 15.0001ZM14.9996 18.0001C15.3937 18 15.7839 17.9223 16.1479 17.7714C16.5119 17.6205 16.8427 17.3994 17.1212 17.1207C17.3998 16.842 17.6208 16.5111 17.7715 16.147C17.9222 15.7829 17.9997 15.3927 17.9996 14.9986C17.9995 14.6045 17.9218 14.2143 17.7709 13.8503C17.62 13.4863 17.3989 13.1555 17.1202 12.877C16.8415 12.5984 16.5106 12.3774 16.1465 12.2267C15.7824 12.076 15.3922 11.9985 14.9981 11.9986C14.2023 11.9988 13.4391 12.3151 12.8765 12.878C12.3139 13.4409 11.9979 14.2043 11.9981 15.0001C11.9983 15.7959 12.3146 16.5591 12.8775 17.1217C13.4404 17.6843 14.2038 18.0003 14.9996 18.0001ZM18.5996 11.8501H20.3981C20.5176 11.8501 20.6322 11.8027 20.7168 11.7184C20.8015 11.634 20.8492 11.5196 20.8496 11.4001V9.6016C20.8496 9.48185 20.802 9.36701 20.7174 9.28234C20.6327 9.19767 20.5179 9.1501 20.3981 9.1501H18.5996C18.4799 9.1501 18.365 9.19767 18.2803 9.28234C18.1957 9.36701 18.1481 9.48185 18.1481 9.6016V11.4001C18.1496 11.6476 18.3521 11.8501 18.5996 11.8501ZM14.9996 0.600098C11.1805 0.600098 7.5178 2.11724 4.81727 4.81776C2.11675 7.51828 0.599609 11.181 0.599609 15.0001C0.599609 18.8192 2.11675 22.4819 4.81727 25.1824C7.5178 27.883 11.1805 29.4001 14.9996 29.4001C16.8906 29.4001 18.7632 29.0276 20.5103 28.304C22.2573 27.5803 23.8448 26.5196 25.1819 25.1824C26.5191 23.8453 27.5798 22.2578 28.3035 20.5107C29.0271 18.7637 29.3996 16.8911 29.3996 15.0001C29.3996 13.1091 29.0271 11.2365 28.3035 9.48946C27.5798 7.74237 26.5191 6.15492 25.1819 4.81776C23.8448 3.4806 22.2573 2.4199 20.5103 1.69623C18.7632 0.972565 16.8906 0.600098 14.9996 0.600098ZM22.4996 20.8336C22.4996 21.7501 21.7496 22.5001 20.8331 22.5001H9.16611C8.24961 22.5001 7.49961 21.7501 7.49961 20.8336V9.1666C7.49961 8.2501 8.24961 7.5001 9.16611 7.5001H20.8331C21.7496 7.5001 22.4996 8.2501 22.4996 9.1666V20.8336Z" fill="white"/>
</g>
<defs>
<clipPath id="clip0_164_3146">
<rect width="30" height="30" fill="white"/>
</clipPath>
</defs>
</svg>