<svg xmlns="http://www.w3.org/2000/svg" width="36" height="36" viewBox="0 0 36 36" fill="none">
<rect x="0.5" y="0.5" width="35" height="35" rx="4.5" fill="white"/>
<path d="M24.2008 18.8333C24.0175 18.8333 23.8258 18.775 23.6425 18.7333C23.2712 18.6515 22.9064 18.5429 22.5508 18.4083C22.1642 18.2677 21.7393 18.275 21.3577 18.4288C20.9762 18.5827 20.6651 18.8722 20.4841 19.2416L20.3008 19.6166C19.4892 19.1651 18.7433 18.6043 18.0842 17.95C17.4298 17.2908 16.869 16.545 16.4175 15.7333L16.7675 15.5C17.137 15.3191 17.4265 15.0079 17.5803 14.6264C17.7342 14.2448 17.7415 13.8199 17.6008 13.4333C17.4685 13.077 17.3599 12.7123 17.2758 12.3416C17.2341 12.1583 17.2008 11.9666 17.1758 11.775C17.0746 11.188 16.7672 10.6564 16.3088 10.276C15.8505 9.89559 15.2714 9.69131 14.6758 9.69997H12.1758C11.8167 9.6966 11.461 9.77065 11.1331 9.91708C10.8051 10.0635 10.5126 10.2789 10.2753 10.5485C10.0381 10.8182 9.86176 11.1358 9.75831 11.4797C9.65485 11.8237 9.62672 12.1859 9.67582 12.5416C10.1198 16.0328 11.7142 19.2765 14.2072 21.7605C16.7002 24.2445 19.9497 25.8271 23.4425 26.2583H23.7591C24.3737 26.2592 24.967 26.0337 25.4258 25.625C25.6895 25.3892 25.9001 25.1001 26.0437 24.7769C26.1874 24.4537 26.2608 24.1037 26.2591 23.75V21.25C26.2489 20.6711 26.0382 20.1138 25.6628 19.673C25.2874 19.2323 24.7707 18.9355 24.2008 18.8333ZM24.6175 23.8333C24.6173 23.9516 24.592 24.0686 24.5431 24.1763C24.4943 24.2841 24.423 24.3802 24.3342 24.4583C24.2413 24.5391 24.1325 24.5995 24.0147 24.6354C23.897 24.6713 23.773 24.6819 23.6508 24.6666C20.5299 24.2665 17.631 22.8387 15.4114 20.6085C13.1918 18.3784 11.7778 15.4728 11.3925 12.35C11.3792 12.2279 11.3908 12.1044 11.4267 11.987C11.4625 11.8695 11.5217 11.7605 11.6008 11.6666C11.6789 11.5777 11.775 11.5065 11.8828 11.4577C11.9906 11.4088 12.1075 11.3835 12.2258 11.3833H14.7258C14.9196 11.379 15.1088 11.4424 15.2609 11.5625C15.413 11.6827 15.5185 11.8521 15.5591 12.0416C15.5925 12.2694 15.6341 12.4944 15.6841 12.7166C15.7804 13.1559 15.9085 13.5876 16.0675 14.0083L14.9008 14.55C14.8011 14.5957 14.7113 14.6608 14.6368 14.7413C14.5622 14.8218 14.5043 14.9163 14.4664 15.0193C14.4284 15.1223 14.4112 15.2317 14.4157 15.3414C14.4202 15.4511 14.4463 15.5588 14.4925 15.6583C15.6918 18.2273 17.7569 20.2923 20.3258 21.4916C20.5287 21.575 20.7563 21.575 20.9592 21.4916C21.0631 21.4545 21.1586 21.397 21.2401 21.3226C21.3217 21.2482 21.3876 21.1584 21.4342 21.0583L21.9508 19.8916C22.3816 20.0457 22.8213 20.1737 23.2675 20.275C23.4897 20.325 23.7147 20.3666 23.9425 20.4C24.132 20.4406 24.3014 20.5461 24.4216 20.6982C24.5417 20.8503 24.6051 21.0395 24.6008 21.2333L24.6175 23.8333Z" fill="#2B5086"/>
<rect x="0.5" y="0.5" width="35" height="35" rx="4.5" stroke="#E5E5E5"/>
</svg>