<svg width="30" height="30" viewBox="0 0 30 30" fill="none" xmlns="http://www.w3.org/2000/svg">
<path d="M27.1373 25.3623L22.4998 20.7623C24.2999 18.5178 25.1716 15.6689 24.9358 12.8014C24.6999 9.93389 23.3743 7.26574 21.2317 5.34556C19.089 3.42539 16.292 2.39915 13.4159 2.47785C10.5398 2.55655 7.80316 3.73421 5.76869 5.76869C3.73421 7.80316 2.55655 10.5398 2.47785 13.4159C2.39915 16.292 3.42539 19.089 5.34556 21.2317C7.26574 23.3743 9.93389 24.6999 12.8014 24.9358C15.6689 25.1716 18.5178 24.2999 20.7623 22.4998L25.3623 27.0998C25.4785 27.2169 25.6167 27.3099 25.769 27.3734C25.9214 27.4368 26.0847 27.4695 26.2498 27.4695C26.4148 27.4695 26.5782 27.4368 26.7305 27.3734C26.8828 27.3099 27.0211 27.2169 27.1373 27.0998C27.3626 26.8667 27.4885 26.5552 27.4885 26.231C27.4885 25.9068 27.3626 25.5953 27.1373 25.3623ZM13.7498 22.4998C12.0192 22.4998 10.3274 21.9866 8.88852 21.0251C7.44959 20.0637 6.32808 18.6971 5.66581 17.0982C5.00355 15.4994 4.83027 13.7401 5.16789 12.0427C5.50551 10.3454 6.33886 8.78628 7.56257 7.56257C8.78628 6.33886 10.3454 5.50551 12.0427 5.16789C13.7401 4.83027 15.4994 5.00355 17.0982 5.66581C18.6971 6.32808 20.0637 7.44959 21.0251 8.88852C21.9866 10.3274 22.4998 12.0192 22.4998 13.7498C22.4998 16.0704 21.5779 18.296 19.9369 19.9369C18.296 21.5779 16.0704 22.4998 13.7498 22.4998Z" fill="#666666"/>
</svg>
